<svg version="1.1" xmlns="http://www.w3.org/2000/svg" viewBox="0 0 668.125 458.375" width="668.125" height="458.375">
  <!-- svg-source:excalidraw -->
  
  <defs>
    <style>
      @font-face {
        font-family: "Virgil";
        src: url("https://excalidraw.com/FG_Virgil.woff2");
      }
      @font-face {
        font-family: "Cascadia";
        src: url("https://excalidraw.com/Cascadia.woff2");
      }
    </style>
  </defs>
  <rect x="0" y="0" width="668.125" height="458.375" fill="#ffffff"></rect><g transform="translate(476.25 316.5) rotate(0 61.25 41.875)"><path d="M12.511796178782939 17.501403451219808 C12.511796178782939 17.501403451219808, 12.511796178782939 17.501403451219808, 12.511796178782939 17.501403451219808 M12.511796178782939 17.501403451219808 C12.511796178782939 17.501403451219808, 12.511796178782939 17.501403451219808, 12.511796178782939 17.501403451219808 M-1.4419325599457622 38.46345620438509 C4.7891001721450674 31.049537307122673, 13.132239152718297 23.595393959976896, 22.471848985959355 10.928931274384553 M-0.9544587843130827 37.31007976945542 C7.533824653674932 28.221518357405994, 14.751390008591585 20.048937461781577, 23.40540967493928 10.836949024282688 M2.0966871670947143 42.21614451940884 C14.23567344472424 30.7939052625897, 25.36143826139448 17.390341795221644, 33.88690950601412 4.413865429202698 M2.0442618617356487 41.594229531956515 C15.008476223126838 28.22494504580716, 28.072414008725957 13.088239674552227, 32.984814773975444 5.399055190237842 M1.6470354170245685 45.49645920847861 C12.68602813209998 35.67260188078502, 24.579866815211904 20.584212441741084, 40.21662307752749 2.0167364469267 M3.385350869846121 47.721682357651574 C13.003168818733961 35.062790342084014, 22.391969251933297 24.38485699804097, 40.6003147655957 3.198211187543677 M2.884031082115552 52.93415114059037 C18.718431240922616 38.51079182815799, 28.96779264769537 19.28826337616991, 45.856038804742724 3.632463330884214 M2.9102615561182112 53.10536172295845 C13.258269522226527 41.467042938393206, 22.264587518917843 31.504849115843264, 46.482438490371436 2.571688314449723 M6.000362150648915 57.771102639962876 C17.52195140868099 42.9896452697111, 31.096266520583693 27.59306720300418, 53.718356829931594 2.96501570007122 M5.139349145161294 57.812314747017766 C16.15353064596084 45.56457271907845, 25.98198703222949 32.492993074128734, 53.072248639402545 0.6765506723738355 M7.831103764896426 60.53940832559209 C22.604089864842084 44.36800999228764, 36.13128240281507 28.41088717851813, 60.047428333394336 1.7149137891520105 M5.677738828075263 61.46054303124737 C22.52185133445284 43.019347119290885, 36.24258823269781 25.075777779235366, 59.11509175431739 0.8959051659021817 M8.010159192129827 64.00358469147402 C25.192580595302665 47.376521686618474, 36.43402376032853 33.299237891314256, 63.8226687363932 0.483761386899797 M8.653016733459985 63.37996223956513 C27.186465424654337 43.91350196663352, 43.20369669374236 25.754461685930217, 63.34676143020634 1.962184441229848 M12.470641766639872 66.85748926705016 C24.030065005684758 51.662682398941676, 38.21742381796885 36.20784642068571, 68.97914449821894 2.244712897756095 M12.49686186943434 66.52807125883443 C33.50524069866038 41.21547505475792, 56.32562289816637 17.62019735339856, 67.99483511268829 2.646363947720225 M16.91343391872679 69.15711103698482 C33.25845786850243 49.58129013737347, 48.58497400131103 28.54252139806369, 73.15642729013383 4.001715860494109 M16.69485515262668 68.14149261864145 C31.826435200511305 49.8203171941385, 46.16674393532274 33.116542151561696, 71.80877827185363 3.635954456568392 M18.243923290662337 69.48923212027395 C33.508330772689746 53.85407449161306, 48.84251652903146 36.17777794862255, 77.9186807924381 4.259978009778145 M19.50446552413689 71.12338417040402 C38.39869445228261 49.03489690362227, 56.83345982845516 26.78361705991761, 77.5612811993307 4.22421912236053 M23.416325649718285 73.42305651091358 C42.888335933695096 48.69104940993955, 64.94532674248126 24.886609870111087, 82.815632926394 5.1757906343814 M22.080622862564862 73.71381782804004 C43.50430102429337 49.55331056084239, 65.77627788113689 24.696064323200332, 82.3904812402099 4.678746841291712 M24.27800780119485 75.96183881856795 C44.18071376750137 52.2057857562328, 62.821158651689814 29.525993268349197, 86.94660362230178 4.781705218968163 M25.60129089703894 76.16015830863562 C46.42050982007707 51.02516395272144, 67.20306271769626 28.74488221950581, 86.64524056111958 5.685378892948101 M28.318341762363804 79.20212678723308 C48.175430180094054 56.202114111939274, 67.1891133421004 32.10086529983086, 91.02147705142369 7.136356802311653 M29.29757138115902 77.59505565110865 C45.74178151404242 57.26890297583146, 63.35494362300572 39.00920554116745, 90.22736838215013 6.716782298524791 M34.1690867044874 78.03068045568214 C52.93643798775503 56.47102829083295, 70.84095938773027 33.65254607015121, 94.26867036506948 7.3043501992989235 M32.23533603501548 79.9521143766542 C54.17443863827127 55.501640861754126, 75.92330665171067 30.315427827363195, 94.78083971593944 8.23108604283071 M39.136593807865886 82.08552005857948 C48.564059628245275 63.36052991566544, 62.29051068630308 50.409685671589926, 97.1521649555109 12.751373778925966 M38.128681400236694 81.14569138985846 C54.4336633328892 60.37987751408754, 70.87133670038071 41.07872200388957, 98.69007662858735 11.285744852283727 M39.950660435780506 79.41516854514377 C60.96395148736971 60.438522883302895, 78.73091133143357 37.97162638940118, 102.21582936901021 11.795828204965972 M42.37003301393203 80.948888497362 C55.15029217134417 64.83887297060635, 67.44550892408233 49.50355383330292, 101.20552115268427 13.207917935578905 M46.26491207651249 84.17557073959382 C60.46768594425039 66.86330174091697, 74.20341941556734 48.12294037900944, 103.61562416086761 13.569874337083242 M46.81177735071084 81.90922156830551 C59.57421208584755 66.60357216339393, 74.65197730619593 48.71643257457758, 104.25709014235852 15.774266884802422 M49.46930234334312 84.81759334114835 C60.80960087687601 69.59770171073119, 74.84022622182863 53.614354432005214, 107.18057412734544 16.16925658905098 M50.86001182268254 83.75487053432957 C72.72881553895968 56.855366393851924, 95.49060225540748 31.739661224958162, 107.79639750520056 16.579529033649358 M53.502612974553635 86.27452492402614 C72.53485262325546 65.68535254600253, 91.25361612770868 45.926579319053786, 110.6328551027344 20.12376999031072 M55.56829477945649 84.80092938957483 C67.51564618278272 71.13888861035281, 78.91567276085995 56.62364384468525, 112.29809099932922 18.725734518983117 M59.66495383342527 86.14957593744592 C74.14622887510671 67.11344915602417, 90.25550657126598 52.97791735693078, 117.02453007531571 19.565921865081194 M58.73139550814204 86.35565619068191 C70.78556110683479 71.36185260732145, 84.33478925544694 57.474110673637426, 115.47783834935385 21.20961795994431 M68.05449902420133 85.88454038473536 C77.29637205412455 68.73182342449459, 89.4062465354028 55.76877360621718, 116.92581307139916 25.437270153249486 M65.60328034931064 83.10788473590036 C77.35748470151813 70.37300543301403, 89.75062440012289 57.474302763941786, 116.76184113041235 24.347706778841896 M73.85121951521052 84.75852036622703 C86.70718258553165 67.41630520690688, 102.58285256298883 48.95635673285423, 117.1421004162375 28.883537188366006 M71.46209532011909 83.3444991079846 C89.49080148706477 62.5684427825978, 107.90675851184362 41.544107442611924, 119.2851160290856 28.39018497914816 M79.97026857372458 82.75478237591697 C86.58815839050206 70.38240344887015, 94.64645869605815 60.79136992633399, 119.62193947311195 32.23449591964953 M79.54480154916729 81.03603997085257 C91.4060694662804 66.20807532782054, 103.88760748450267 52.482345436743145, 121.08071358248296 32.71952936750375 M85.28206856302478 82.0312243630239 C92.15064454116528 71.40747211742942, 101.43140658945204 60.07256775011254, 122.23770573030379 36.92734117131878 M85.54851207356461 79.52592163114484 C96.86100679127935 66.46650178087421, 109.51003885427963 52.20763361917133, 123.14164526521381 36.99263081304927 M92.73692900038287 79.5984565715438 C102.37681358919077 66.12522397798769, 111.70405669373261 54.19242008370937, 122.94204377210376 40.448899222815314 M91.03635989691094 79.4272628777793 C100.82881538675345 68.25810624182208, 109.68391000976163 58.67042027427902, 123.85857446039704 42.30175382764814 M107.29251192895995 69.35998462073181 C111.10440542790016 61.88306531855798, 114.83387130870608 56.893907441752006, 117.9791599393469 55.70433035103642 M105.81084321797194 68.92963651826281 C109.80900967709614 65.42362449756061, 111.91236267941173 62.73856247928989, 118.4590392021109 53.956223232411226" stroke="#ced4da" stroke-width="0.5" fill="none"></path><path d="M55.976170587866605 -0.7144586536395892 C66.15561143691163 -1.8265505455641027, 79.5468474358406 1.380583972989704, 89.13963046681461 4.8047238921421 C98.73241349778861 8.228863811294495, 107.94113718929833 13.630092723495, 113.53286877371066 19.830380861274786 C119.12460035812299 26.030668999054573, 122.63407922255954 34.90074853022744, 122.69001997328857 42.006452718820825 C122.7459607240176 49.11215690741421, 119.05749520082522 56.39933066932785, 113.86851327808492 62.46460599283512 C108.67953135534462 68.52988131634238, 100.78292263057165 74.69954822827746, 91.55612843684682 78.39810465986443 C82.32933424312199 82.0966610914514, 69.34901020821248 85.08325315040567, 58.50774811573598 84.65594458235691 C47.66648602325947 84.22863601430815, 35.3552079670835 79.86241223775349, 26.50855588198781 75.83425325157191 C17.66190379689212 71.80609426539033, 9.957231254601531 66.90402298038808, 5.427835605161846 60.48699066526745 C0.8984399557221616 54.06995835014682, -1.8314774877567714 44.47676691749904, -0.6678180146502939 37.33205936084812 C0.49584145845618366 30.187351804197196, 5.761235720682247 23.496695458063257, 12.409792443800711 17.618745325361903 C19.058349166919175 11.74079519266055, 30.46845119771649 4.932439143466787, 39.22352232406049 2.0643585646399885 C47.97859345040449 -0.8037220141868109, 59.423635349077216 0.5770766014169908, 64.94021920186469 0.41026185240110635 C70.45680305465217 0.2434471033852219, 72.49805910747196 0.5463308444507126, 72.32302544078534 1.0634700705446818 M34.29658426061964 3.720754387340989 C43.118934255724085 0.41301724795988726, 55.968119089308004 0.2110493294164435, 66.55472722062584 0.7528474453311063 C77.14133535194367 1.294645561245769, 89.2122632156994 3.1373529796803106, 97.81623304852661 6.9715430828289655 C106.42020288135383 10.805733185977621, 114.40445491008614 17.236620329737637, 118.17854621758914 23.757988064223035 C121.95263752509214 30.279355798708433, 121.97335151566644 38.95588199509669, 120.4607808935446 46.09974948974135 C118.94821027142275 53.24361698438601, 115.47691476928958 60.71857775413062, 109.10312248485808 66.621193032091 C102.72933020042657 72.52380831005138, 92.12124952584827 78.81178994631722, 82.21802718695558 81.51544115750363 C72.31480484806289 84.21909236869004, 60.288201175249014 84.31211021181926, 49.68378845150196 82.84310029920951 C39.07937572775491 81.37409038659976, 26.257578935237206 77.51708586759867, 18.591550844473247 72.70138168184509 C10.925522753709288 67.88567749609152, 6.686458659203089 60.99182719547775, 3.687619906918215 53.94887518468805 C0.6887811546333418 46.90592317389835, -1.8776565977493491 37.59562351891634, 0.5985183307640085 30.44366961710689 C3.074693259277366 23.291715715297446, 13.134402881050963 15.568819741066143, 18.54466947799836 11.037151773831372 C23.95493607494576 6.5054838065966, 30.677525450585637 4.069336486436506, 33.06011791244839 3.2536618136982582 C35.44271037431115 2.437987140960011, 32.27233823120519 5.403412155902738, 32.84022424917489 6.143103737401887" stroke="#c92a2a" stroke-width="1" fill="none"></path></g><g transform="translate(492.5 351.875) rotate(0 45 9)"><text x="45" y="14" font-family="Helvetica, Segoe UI Emoji" font-size="16px" fill="#c92a2a" text-anchor="middle" style="white-space: pre;" direction="ltr">SERVEUR 3</text></g><g transform="translate(302.5000000000001 119.625) rotate(0 61.25 41.875)"><path d="M3.963060304655329 27.295269644281415 C3.963060304655329 27.295269644281415, 3.963060304655329 27.295269644281415, 3.963060304655329 27.295269644281415 M3.963060304655329 27.295269644281415 C3.963060304655329 27.295269644281415, 3.963060304655329 27.295269644281415, 3.963060304655329 27.295269644281415 M2.1730392207742533 33.74776588914389 C7.018408019449481 28.179082274999175, 15.473177253392574 19.509273242409513, 24.805201685629452 10.698971522466085 M2.4878220684246024 34.63060481914724 C10.217980062351842 25.353816917524846, 17.33408966609035 17.576130308097557, 23.589896138399506 10.684901185759148 M3.740006907780433 41.405221632724746 C11.367766284599053 34.212711175198045, 17.038347792907526 23.493247673097773, 32.362066655577934 5.366800439681063 M3.040317539063061 40.699704276440784 C13.19850057177544 27.024338354591144, 26.258103170492593 13.975353948411264, 33.26860042304716 6.6582899467527366 M2.980011170103996 48.21120452169134 C9.117604595328952 37.00804945987258, 18.016828328081193 29.60140736642505, 41.49022259537504 3.8210349202505327 M0.23021745153501527 48.91861547842427 C14.084429154363093 34.35473923145796, 26.212061078709656 20.81774672757646, 40.123374921012676 2.716945774701891 M2.7195507659787275 53.18678335414858 C17.93756224233066 31.85437761573948, 34.5116873317738 13.621841164618758, 47.238590127340004 2.029426859284335 M4.415789362902377 52.320095455624475 C20.174689912999927 33.62880575170675, 35.02818363057117 15.061159560775998, 45.34135436594342 2.561988484638327 M4.773362288733342 54.38254460542905 C24.74251818300664 35.416477023325044, 39.5536922226528 15.156581939629113, 52.765890230716096 1.0919733851101263 M6.542171477821984 54.570911103295856 C23.496488224630625 35.67099033481427, 40.01773413643342 15.6871689282668, 51.34935666091077 3.600025312311576 M8.597805601649092 57.74544872475152 C20.312533615756475 42.75619458556206, 35.22797645075312 27.797357100056534, 56.28043589378458 2.484931821946663 M9.076008083403217 59.05744547807907 C25.73521977688083 40.56875710042344, 42.82319715494869 19.956578561183157, 58.03492453052413 1.4059158768622702 M11.479127721997727 62.32516845611195 C25.590080929289527 44.739920007401906, 38.11192631178229 30.423836357196233, 62.47686822982669 1.2294813690126922 M11.474963433245946 61.31078611889194 C23.246900829985577 47.32461166496355, 37.330466378952636 33.37971215838738, 62.46431163689286 1.1101838599310305 M14.721726705079494 63.48042715917465 C31.64934632878561 45.40675418975994, 50.35974578741464 24.296205846497294, 69.34865647712368 0.07922310052695991 M14.657235631478546 64.43181336782065 C25.275521628405485 49.667357570989225, 38.063514079922015 35.368901759661, 68.97623257962633 0.8052670056584788 M14.397005818166136 66.5382413279356 C29.823628030866132 51.955044063749, 45.12187082196789 35.55540847978076, 72.34453896996631 2.4623895459309963 M17.031660806700884 67.96919288878306 C39.62759133924917 42.448261607021806, 61.27209279661265 16.26452829396218, 73.61955386684342 2.70647670090802 M19.53163742453892 70.00025891161353 C37.07620430597249 51.1738054427736, 53.958939782068676 32.191720478255405, 76.4931411966358 1.1599255294435409 M18.967226996022355 71.34446398841978 C38.58450507324348 46.34257456380382, 59.92214857340856 22.254865391766636, 77.5591619731535 3.0488288148202685 M20.888240070460093 73.46613057398167 C40.67732411491899 49.327050605972474, 62.7153420034901 28.37175371405111, 80.55941677041343 3.2476977502833577 M22.855001232033324 72.9941608754259 C40.241280927606624 52.82366824968939, 57.21686030452775 32.17097600972779, 81.51365431066594 5.2480032790358635 M23.8415243112299 74.3492671747043 C49.592956366617045 47.80686895308102, 72.99373270973592 24.57961159844706, 85.16926548756143 6.774575622223637 M26.265525368862168 75.30432014188759 C45.54278632866655 51.473394962243134, 65.64053842995101 29.14892967882752, 85.16120728697112 5.79717492724987 M31.127146885129598 77.53608228800016 C50.670249706740364 53.457053364067484, 73.31884916689717 29.822413331258034, 90.34173818237059 8.723479174705915 M29.978920256118265 77.48847328194546 C43.100031706255535 59.85179305108851, 57.812217793691325 43.31360000167903, 90.95303116018795 6.4468113963257 M34.34209265544042 81.08291136308802 C50.89206766869833 60.17521297356815, 69.08231564124597 41.48355280340166, 92.9257728431221 8.180040731948928 M33.76651768091097 79.50331585224015 C55.446001125581674 53.49468704664366, 77.97369961684726 28.689979015076126, 94.83135615492574 8.592084805403964 M36.75717461044363 82.40351172418661 C60.62979379548575 54.237229965444456, 86.49639547889879 24.9385977127233, 98.10057655410677 12.029524073394214 M36.48461036784968 81.45495747191228 C53.33097986503982 60.366385808662486, 70.11758695291252 41.42669026705449, 98.01106440430343 9.188540916348074 M42.12953386342047 82.4565625705147 C62.207806277076166 57.94968904815563, 83.34290769809786 30.21322638810758, 101.4684206405773 9.370776532592188 M41.168201979043765 82.00517182260248 C59.503590923348135 58.85061026681686, 80.03451598503726 36.097906238077805, 104.35373509490185 10.384801232630323 M45.515139652652195 83.93316497629104 C67.0241737019087 59.448130239928936, 85.5387099991507 36.49586489522487, 105.33837329187196 13.514953540098247 M45.12475711410259 83.77764664845137 C59.851230324533375 66.4492255860283, 75.30800297319708 49.59903333134118, 104.93262708988738 13.74003754222798 M48.04946642839158 85.18021315006605 C68.59796049683916 63.844068624087, 85.50587220683119 44.67986796708278, 110.65998014122451 17.078827019017275 M48.99612839710707 83.50010501543126 C68.50701657409127 63.25724453768344, 85.19551469060947 41.65650764112537, 109.24760950882191 16.536030313167807 M53.19940356295782 85.93499023694959 C76.67783519974255 59.09406024614333, 98.96056207324887 32.23969971997225, 110.02670174393518 21.757057829013576 M54.29171618670451 84.95765111357387 C77.34590945637322 58.6018498017976, 99.84274451133082 32.0613026012637, 110.5098492058338 19.76819113753598 M60.104522727613215 85.70144377571482 C71.78472930736524 69.17504326324139, 87.39068366679857 53.3980190168177, 113.70506289626624 24.20789038386033 M61.01098595298535 83.58779571407426 C76.73239036598075 66.31544100458818, 91.13273289256593 49.269019555121574, 114.95221008851345 23.250007349027555 M63.82898760265799 85.48478150102609 C80.53760448071796 69.50363465016241, 93.95481559122298 54.75835621276959, 117.19868040351793 26.278329293221866 M65.17662798757793 85.43380197151863 C83.3696387761181 65.99736275364204, 99.50949643697916 44.6762684307203, 115.67453088598921 26.056968664728736 M68.76646708036388 86.69600428187935 C83.57716495972059 71.55694415667713, 91.97554660199573 58.99938634049525, 121.3092353119525 27.15396272087137 M70.52072060658212 84.26796836232482 C90.10330847654842 61.74369499763049, 108.6864370708874 40.083743415237706, 119.98584738085148 27.895140543334584 M78.1405172069932 82.8488252820478 C88.62497937658557 73.74853522285714, 97.14425676005652 61.21527616830346, 124.35655970586072 32.82942944625035 M77.26636209258834 84.50729784518789 C89.2165739513577 67.26277677946842, 102.61696131719253 52.523536776160256, 121.90572920621912 30.790381246708485 M85.50496312481765 81.25658912052742 C99.76193699532834 64.3882001321314, 114.02376577302789 44.57234513612258, 124.33507767857127 39.05062844469145 M85.90930263669644 81.12916702152572 C95.42564430842734 67.07766755726249, 107.46348057727465 55.48473250034654, 121.60197081674896 37.24930142010495 M91.58822198514699 75.4839006122053 C103.67025561203401 66.9695283579824, 109.63307262031425 57.660839319880445, 121.56719076730846 44.18157518407677 M93.34351725154428 77.34170487614725 C99.71446083724324 69.30089481722773, 107.09948828089972 59.63442098296814, 122.32522692349343 43.344870388827964 M101.69821615126244 72.25115770630015 C107.60379623601605 66.37824209989839, 114.82329193826762 57.86860062005444, 119.082479315401 51.995512389738906 M100.54736897424124 73.70707571569307 C105.82182757714187 69.90616415799313, 110.12813552923538 65.0195781215435, 120.06946385610937 52.72627692313199" stroke="#ced4da" stroke-width="0.5" fill="none"></path><path d="M39.192338534852276 2.8997731524590122 C48.0095457106683 -0.33243032324806654, 61.142389288652616 -1.1731818639184286, 71.60442852479352 -0.028793583903855335 C82.06646776093443 1.115594696110718, 93.91192208823423 4.9288065725317916, 101.9645739516977 9.766102832546451 C110.01722581516117 14.603399092561112, 116.89946466571209 21.97010438238942, 119.92033970557432 28.994983976184102 C122.94121474543655 36.01986356997879, 122.69748886180761 44.96758408380188, 120.08982419087114 51.91538039531456 C117.48215951993467 58.86317670682723, 111.74456438449249 65.50138686750462, 104.27435167995549 70.68176184526017 C96.80413897541848 75.86213682301572, 85.60736443920437 81.02291435074196, 75.26854796364916 82.99763026184783 C64.92973148809394 84.9723461729537, 52.10711691239236 84.76041559671994, 42.24145282662418 82.53005731189538 C32.37578874085601 80.29969902707082, 22.890869404546713 75.03881734894571, 16.074563449040113 69.6154805529005 C9.258257493533513 64.19214375685527, 3.400427862070952 56.99942998957162, 1.3436170935845908 49.990036535624085 C-0.7131936749017704 42.980643081676554, 0.03225994057270887 34.307787588293984, 3.7336988381219456 27.559119829215298 C7.435137735671182 20.810452070136613, 16.73022990746343 13.85606653511934, 23.552250478880012 9.498029981151966 C30.374271050296596 5.139993427184593, 40.243289408143504 2.616904846851156, 44.66582226662145 1.410900505411064 C49.08835512509939 0.20489616397097166, 49.85479890577194 1.4817700406313121, 50.08744762974767 2.262003932511412 M88.45418769245667 4.257995906213459 C97.79613924448621 6.816249065430188, 106.82628068447872 14.017168973777896, 112.4625501716828 20.191946560823627 C118.0988196588869 26.36672414786936, 121.86864461813322 34.14012090858548, 122.27180461568116 41.30666142848784 C122.67496461322911 48.473201948390205, 120.19666322559684 57.066306672051105, 114.88151015697045 63.19118968023782 C109.56635708834406 69.31607268842453, 99.78290116560697 74.39964749663505, 90.38088620392283 78.05595947760813 C80.97887124223868 81.7122714585812, 69.00031840645254 85.12840357839602, 58.46942038686562 85.12906156607622 C47.93852236727871 85.12971955375642, 35.695272457575015 82.2567743793498, 27.195498086401336 78.05990740368932 C18.69572371522766 73.86304042802884, 11.815532490651066 66.64686604222962, 7.47077415982357 59.94785971211333 C3.126015828996075 53.24885338199704, 0.32718197207473665 44.85066556081083, 1.1269481014363691 37.86586942299159 C1.9267142307980016 30.881073285172338, 6.215189832472078 24.00303358418627, 12.269370935993365 18.03908288519784 C18.323552039514652 12.075132186209409, 27.694048076325643 5.117613802137118, 37.45203472256409 2.0821652290610047 C47.21002136880254 -0.9532833440151083, 62.479291371791135 -0.28629244799255343, 70.81729081342405 -0.17360855325883762 C79.15529025505697 -0.060924658525121814, 84.79428046711486 1.8027249642959973, 87.4800313723616 2.7582685974632994 C90.16578227760833 3.7138122306306016, 87.44387548390215 4.587247126969291, 86.93179624490443 5.559653245744975" stroke="#c92a2a" stroke-width="1" fill="none"></path></g><g transform="translate(317.5000000000001 152.5) rotate(0 45 18)"><text x="45" y="14" font-family="Helvetica, Segoe UI Emoji" font-size="16px" fill="#c92a2a" text-anchor="middle" style="white-space: pre;" direction="ltr">SERVEUR 2</text><text x="45" y="32" font-family="Helvetica, Segoe UI Emoji" font-size="16px" fill="#c92a2a" text-anchor="middle" style="white-space: pre;" direction="ltr"></text></g><g transform="translate(123.75 318.375) rotate(0 61.25 41.875)"><path d="M5.696295333400069 22.17688290154369 C5.696295333400069 22.17688290154369, 5.696295333400069 22.17688290154369, 5.696295333400069 22.17688290154369 M5.696295333400069 22.17688290154369 C5.696295333400069 22.17688290154369, 5.696295333400069 22.17688290154369, 5.696295333400069 22.17688290154369 M3.6620011784535684 32.08416170921835 C7.981701334235181 23.561403426538003, 12.537874229553573 16.963752442097128, 18.38756886731971 15.599915384758495 M2.5792087072905936 30.608786201260113 C7.545221621552042 25.749828935436334, 14.231885186903574 19.466780608719322, 18.373864408136793 14.071966166120253 M2.5916898272541253 38.40536019112561 C6.002043521632169 32.68003272399231, 13.643933309240062 24.26919068255002, 29.07186238254912 6.090465671955201 M1.566486678419718 38.824162805449404 C9.980038822155347 29.973416774877712, 17.25248247914004 19.92194058742633, 30.101729186917915 6.790979358008656 M2.4356634274060873 46.03515141368779 C14.246925076169562 32.989737479013684, 27.67707254495152 18.215790640612006, 36.6061431457751 6.736345830448846 M1.9358964713226108 45.784414308191565 C10.676446966012769 33.98966473686741, 21.81990497713292 23.193305875381647, 37.266355086071094 5.826915858388821 M3.2440318421907044 49.826745826123656 C18.41045588824739 31.325556865475093, 30.533251178684736 18.79090043113989, 44.69700540619347 2.1276769624532363 M2.107207373108647 50.17279876612723 C16.367038061256878 33.254084617101086, 30.430180480750714 17.455842431654858, 42.11294109112028 4.759124064396431 M3.9286150019082093 53.000194913097495 C18.375970168766436 38.333466345425805, 28.097278574507968 27.886147525053143, 49.28889930607596 1.437178686964348 M6.023031550406184 52.58140745884257 C16.161757495340424 40.40016512877669, 27.882897405595525 28.79483081235437, 49.31692489316532 2.2602930774493366 M8.387560961858838 57.82047203427359 C21.30721160772314 43.95509489040752, 33.17252293322971 28.66717655581111, 56.65692602572284 0.8341212386464676 M7.554692107343584 58.40799572842374 C19.620706806524293 41.53594270811931, 31.88376127275187 27.63013078232187, 55.358028033834614 1.7291548021336993 M10.942082018304863 60.76613410342516 C20.75628394318191 46.70173632324875, 36.823109863898466 29.886294118507287, 63.49963292841535 -0.10172243328164399 M9.220209201511242 60.24339465856583 C26.641522511074275 40.2196305140712, 46.1545004245061 18.548348258022948, 60.89430105023753 -0.076813954909845 M12.556541505537012 65.99978864999372 C23.04456906618718 50.95185132167095, 38.713916858015516 36.52041669536264, 66.43939550243472 1.3168424953987596 M10.685636841028014 63.56072813613224 C31.768490892716628 39.20758014765925, 53.40090121384069 14.240216965289534, 67.54375541698342 1.874277675459325 M14.275189911836556 68.53675549819802 C29.456797726332965 47.22020537526126, 47.45979124797799 32.46320574340945, 71.49097639005274 2.3172231436836483 M13.483049000503293 67.10282453026359 C32.38359145252121 46.49467343562928, 49.598615739352894 24.37939753276941, 71.63417257517219 0.5402750446590545 M18.690723908465735 69.67785718681127 C30.166936001955747 55.12385690670268, 44.89676048046693 38.89822710891653, 75.56190732955062 2.3639580857917863 M16.760348650027446 70.53375711215496 C39.20363957647672 43.270491697622944, 62.07866124182529 17.796662064796855, 76.98473587441319 1.7206471468299824 M20.1643731467343 72.47988603072054 C41.129637587238506 48.48860785808412, 59.71017494857315 26.04688386817744, 79.26498915521915 3.3462173511646824 M20.782604552238347 73.1280611166153 C36.48171466927391 55.838149476120826, 50.5593545322658 38.81139162225398, 79.99978057282533 2.4627366188354927 M24.198990547904497 74.39600831869902 C46.251806861582295 51.228779108693715, 63.73974693871732 26.11232885925432, 83.04290985533954 6.255883264021101 M24.58639155222637 74.62988793983968 C39.322141358824865 54.437349529853, 56.29343144999133 35.57157715317014, 85.07466189501794 4.958590579816224 M29.003080071267085 75.50094095518824 C46.788060525789376 53.60191950095939, 62.92254105917564 33.43847237266037, 87.98074457218358 7.375050443357004 M28.825068345610397 76.6969317811915 C42.009895227438165 58.43439641400698, 58.21886991363996 42.426162673399894, 87.68950503209093 6.9512106311900155 M32.27147380111279 80.41432271962974 C49.08586431842653 57.77260576649077, 62.87974905187468 38.06037749597679, 93.30633754403249 9.972944963391157 M30.83070456550928 79.04255090253416 C54.89399278977877 50.38101909066706, 78.25347305923128 22.338371415935825, 91.19083708365366 8.650222017097505 M35.966009033703884 82.2240855257967 C58.7540828317932 52.50298455062219, 83.52678232611834 24.789075788773495, 94.51492016315804 10.984005193119522 M34.67600786951341 80.57788888756274 C58.979620837398 55.062310630987994, 80.6340901483304 26.848161470342, 97.19745511580602 9.628704463956531 M39.191674103331124 83.20221190313066 C54.80392579516915 61.14246716015836, 71.30689729210233 42.70348875222098, 99.55737485986046 10.214220117206409 M38.33171976574168 82.34638212314064 C54.085800950079204 62.84846970776405, 70.37674219635593 45.602815907033005, 99.06994004517637 11.248280501353278 M44.94546255625676 84.46397751540479 C63.90104303901602 58.95646209827153, 83.7579099790039 33.892180162834954, 105.58908927641153 14.000371854647781 M43.696719786784456 82.40175231796292 C62.74213211003513 60.00730928679765, 83.09873398664256 37.010830261565, 102.9407608128646 12.537107980705585 M48.33645994778101 83.43841822228345 C63.242423737692846 65.05996308978267, 77.7070105761058 48.802538996082, 107.15822015109245 16.416373979662396 M49.09936228677009 83.49722356411579 C66.11671494913149 63.411729865776664, 81.59752977313246 45.26786692389541, 107.18378826848004 14.614968396154083 M51.33469801618515 83.52757259798533 C71.57011781413317 64.04790943270619, 88.42587974824997 43.97974777638651, 108.36213428920352 20.21548110191455 M53.32758061530797 83.96351485573983 C73.70929572807728 59.91776683143088, 94.5350709859434 36.51990427083959, 108.85198614115113 17.854226464784944 M57.61547759575993 84.55811067195198 C70.37361654604753 71.07810644135428, 79.6491223771589 56.73672978045101, 113.59626273700698 22.48953138517745 M56.75446003051698 84.37921882969847 C69.60233626613856 68.13822495791997, 82.96674410063491 54.39186943817322, 111.70751521346821 22.757822645293253 M61.99610473276759 85.9499956079566 C77.35723347055657 68.91848867327774, 89.27034339501398 52.61548759534443, 112.43024660778406 23.38470402866983 M62.05622381498749 83.95821344468678 C79.4977918916556 65.56674924364646, 96.6935941417719 44.62157992835174, 113.37912914754065 24.893780619319614 M67.31203651149887 83.43224118544072 C79.5160216761941 71.93700398729652, 90.45360792973922 57.455993790950444, 115.732555139816 26.779600106610467 M67.36962910183836 85.48416946256816 C79.21953834293784 72.13630621136143, 89.36278947037981 58.71157563338195, 116.76804254297782 28.79203813100468 M73.19755814124454 84.96628305884585 C90.79321372626235 62.995212671165234, 107.0490996576441 41.350244381420275, 120.4829856963841 32.472742568218095 M72.35389396168847 86.452671707706 C83.89275554834173 72.9205771441678, 96.24383051196938 57.76410252116381, 119.14168093688914 32.350696986989064 M76.83463713023838 82.40522127627686 C92.38034797637566 70.42827607384997, 104.09119849829551 54.41663488006596, 120.58516376576958 34.370076237711444 M79.22080157659974 84.94921158562705 C92.28853575788013 68.87505403803935, 106.04345766791842 53.00403182713902, 122.22743080388395 36.24227305641337 M85.92453785079958 81.00196398284365 C93.889441060277 74.19438276194674, 98.2904990513425 64.30381523698559, 121.05480684529164 43.6913061352004 M84.98756480521949 82.37608078636308 C98.98877156513379 65.41519032249724, 113.49875119153909 49.50372557693994, 120.68215344010957 41.33878459180935 M92.02908891620943 81.78550287776491 C99.70604749630225 73.92357484803999, 106.99009173037949 65.36474635523882, 120.0488737602031 50.85559209423536 M93.09934355965713 80.04739674155465 C99.83403559611845 71.87021446712448, 107.50513026828195 64.80925162584477, 119.40258428214696 49.81619684664929 M100.72712415172069 76.50312279459109 C107.4795142194625 69.31354158183292, 115.18969214797258 61.53613047441487, 120.4295924317662 55.70672540358953 M100.86693577649353 77.35006220467409 C107.97964771017132 68.20664722822247, 113.32988244508562 61.422814337512015, 119.37061067508648 55.59834871712826" stroke="#ced4da" stroke-width="0.5" fill="none"></path><path d="M79.19986595104008 1.1666589341783435 C89.33639279943174 2.7887743543340653, 100.44181316378454 9.05701343989347, 107.39434482128942 14.585508061181681 C114.3468764787943 20.11400268246989, 118.97720484064395 27.361865082993557, 120.91505589606932 34.3376266619076 C122.85290695149469 41.31338824082164, 122.52512847408155 49.64648897441842, 119.02145115384162 56.44007753466593 C115.5177738336017 63.233666094913445, 108.20882598893273 70.61293731906136, 99.89299197462978 75.09915802339268 C91.57715796032683 79.58537872772399, 79.79974629599765 82.47507413005124, 69.12644706802392 83.35740176065379 C58.4531478400502 84.23972939125633, 45.5511806932937 83.44694121743154, 35.853196606787435 80.39312380700791 C26.155212520281168 77.33930639658428, 16.91576589752111 70.88722643935327, 10.93854254898632 65.03449729811194 C4.9613192004515305 59.181768156870625, 0.8203561223205528 52.46939011245819, -0.010143484421298865 45.276748959559995 C-0.8406430911631505 38.0841078066618, 0.966126576531674 28.361425998522282, 5.9555449085352095 21.878650380722753 C10.944963240538744 15.395874762923224, 20.85166199744851 10.01827643690446, 29.926366507599916 6.380095252762828 C39.00107101775132 2.7419140686211976, 51.798715889320526 0.6601175987373141, 60.40377196944366 0.049563275872969825 C69.00882804956679 -0.5609910469913745, 77.81608585356744 1.9874345749859081, 81.55670298833871 2.7167693155767623 C85.29732012310998 3.4461040561676164, 83.35051995120229 3.7854875799321683, 82.84747477807127 4.425571719418095 M80.27104886076182 1.9973772535382608 C89.75627470894457 3.634366319950689, 100.43965345392012 9.730430769025855, 107.49121955567904 15.18140192474494 C114.54278565743796 20.632373080464024, 120.92386568879081 27.67587124062589, 122.58044547131533 34.703204187852776 C124.23702525383985 41.73053713507966, 121.69400591212789 50.367206766826065, 117.43069825082617 57.34539960810625 C113.16739058952444 64.32359244938642, 105.2135663635726 72.13555855776761, 97.00059950350499 76.57236123553386 C88.78763264343738 81.00916391330011, 78.54729644302442 83.26551456866605, 68.15289709042047 83.96621567470372 C57.75849773781651 84.66691678074139, 44.21215976020189 84.2443681776739, 34.634203387881264 80.77656787175988 C25.056247015560636 77.30876756584586, 16.45418488266822 69.30307329515317, 10.685158856496699 63.1594138392196 C4.916132830325178 57.01575438328604, 0.642148631225466 50.971149728569166, 0.020047230852135556 43.91461113615847 C-0.6020541695211948 36.858072543747774, 1.5795704784092939 27.15223741907996, 6.952550454256716 20.820182284755425 C12.325530430104138 14.488127150430891, 22.915818332173565 9.509530478754499, 32.25792708593667 5.922280330211258 C41.60003583969978 2.3350301816680172, 54.73620860722377 -0.10951818399046098, 63.005202976835356 -0.7033186065040198 C71.27419734644694 -1.2971190290175785, 78.87296826950086 1.623727086985678, 81.87189330360619 2.359477795129905 C84.87081833771151 3.0952285032741322, 81.19642680410483 3.1991709666300423, 80.99875318146735 3.711185642361343" stroke="#c92a2a" stroke-width="1" fill="none"></path></g><g transform="translate(140 351.25) rotate(0 45 9)"><text x="45" y="14" font-family="Helvetica, Segoe UI Emoji" font-size="16px" fill="#c92a2a" text-anchor="middle" style="white-space: pre;" direction="ltr">SERVEUR 1</text></g><g transform="translate(53.750000000000114 382.75) rotate(0 24.375 29.375)"><path d="M0 0 C0 0, 0 0, 0 0 M0 0 C0 0, 0 0, 0 0 M-0.8873995020659515 5.918774061699502 C0.3608376464987042 4.109699146652581, 2.224650385775855 3.3484794739308477, 5.021127771171278 0.5979966480133349 M0.05835696722847722 6.529303373073332 C1.1066350216299576 4.946618298753298, 3.0984045220202905 2.5580275179512704, 4.9495710342698755 0.08274968041453895 M-0.33034032647501355 13.522279318093837 C1.7399623346813002 9.026474345733835, 5.7262817242164825 6.314287545095073, 11.523736619901788 1.1889901767566564 M-0.6387452050019397 11.310387944846928 C3.2909273523439437 9.395962218552324, 5.3393852744429555 5.035449632995044, 9.930310889285934 0.13554761885551225 M-2.0899992930284004 17.80444310689407 C3.358045127332188 11.087012251238665, 10.427970221438182 6.9808662411754465, 13.856301923751314 0.5881267364067009 M-0.6234100554650883 17.533529525530213 C3.7508154326980323 14.139965373817379, 9.293807315078109 7.881082464693231, 15.908230200878759 1.2179919552919438 M0.35687111897387247 24.486141174747704 C8.685478707530564 18.77186459185809, 13.432111226417689 10.798835126645274, 19.91860127849307 0.5995359340846065 M0.9650177817977283 24.33370234509474 C4.700417517546105 19.529808848503812, 8.985602275890765 14.131509602216383, 21.404989927353228 0.06600506270076067 M0.11713249893387712 31.243351511422745 C8.498382676855398 18.704224594431135, 15.791342261005902 8.601668720154237, 24.248576269161315 0.961664920115167 M-0.42673965352127396 29.99068034882491 C8.006608372719617 20.738062676837128, 15.535416147817106 13.056991356687035, 26.792566578511508 -0.08211243674040425 M1.3016168250608722 38.66639627497767 C6.967356014251811 28.42666991209399, 18.97208230150251 16.48805846060268, 30.392414777955807 0.9495793973340874 M-0.32264652579096165 37.85018730610733 C11.44060886156026 24.808953418718048, 20.64445339837544 12.408767788628815, 31.766531581475235 -1.058197916367721 M-0.8714220494358784 41.70692574847095 C6.549749924267934 33.07664382228694, 16.45358554704847 24.949775477550595, 38.06699044611429 0.5310115144681653 M0.02774706311980424 43.49915792382859 C12.390318814661327 28.194837263765418, 26.508381773157254 13.267852708955616, 36.328884309904026 0.40971050887373295 M-1.8569854833186454 50.75454708062939 C12.056528300481501 34.46876265249315, 23.894655617047757 21.237635807141302, 42.59583490583651 -0.8588167756469005 M0.08737798687062792 49.12361658704363 C13.908632673285542 32.061684808434684, 27.820246757410747 16.455325391869813, 43.44277431591951 -0.24655265935221848 M-1.0034168443876652 55.16635722428869 C9.20970977751867 42.107415501129765, 21.55963176673535 32.43490134193664, 45.84816554836023 0.5329829257156895 M0.030333297583148067 55.319460297416256 C16.615622593084776 35.559200104160965, 34.891526267320984 15.347719405669451, 48.19027909818131 0.6961463390093492 M2.698744316575816 58.6077004177301 C14.284408234812668 45.779268373623395, 25.740127821639394 30.288475643531925, 49.70668066891366 1.8159175620599584 M1.2117460518979932 59.714466154555865 C20.94324903329706 36.31525043492651, 41.43093453910368 14.86220603270013, 50.45894924683952 2.572442621290584 M5.396675468743084 58.581701123121015 C20.3466593737051 45.163853978306676, 35.19560456188182 25.69878721266833, 49.63082335075356 7.2874509425582445 M6.166458513908324 60.77907429445796 C16.052525221750223 47.37353410597518, 27.091026239799163 34.67017457529992, 50.723822327572776 9.44106098299195 M12.721885666380349 60.56240772985654 C21.046326985342716 45.90592477797797, 35.58323903228895 34.555716308252144, 50.02910787103219 14.679569618932383 M11.174386720302227 59.240781592845785 C21.96381211133214 48.06640202364543, 31.244361508211902 36.913802735333434, 50.63849928745521 14.612631774663406 M18.506482925725354 60.99606801166346 C27.630151648998435 50.226388724042174, 37.39456906161695 37.18189752699182, 51.32543912098731 21.06547448990918 M16.19553785723932 59.366667122274244 C30.080626098623746 44.67714394281499, 44.0133494109087 30.25574091916026, 50.320213875146464 19.837632506359885 M21.62673325397785 61.35891954637751 C32.40996454056378 46.57693933892928, 41.43513847208102 36.98156770763359, 52.67537998281868 25.860856258324347 M21.932319289341226 60.30243257190719 C29.569011478648726 52.51925061486979, 36.64804189339608 44.00540095237105, 52.284850017768164 26.58891330474522 M26.94208841737559 59.007366357725445 C37.15262153238876 48.80110922201223, 45.88218866123958 40.23197869696624, 50.90517909776405 31.674072072904657 M27.987316327767576 59.203828889299515 C36.61560318975019 49.42183046657282, 44.32710687826112 41.96508955146771, 50.60471958897993 32.19312355487431 M34.731158173118324 59.952802273543 C36.83367490718755 51.52266883724039, 45.06566484952726 47.68850931743842, 51.29168406903264 39.83567846670861 M32.518014462139995 59.29272963861507 C37.11506533149664 54.24450369312909, 40.39215614435131 50.63861942117618, 50.90722561191288 39.64149483863378 M37.63073803744379 57.711787567556954 C42.68934561423573 51.924893511249465, 49.619681220726875 46.798373672792636, 49.78166437483374 43.47506009779466 M38.394577128618096 58.988557642408765 C41.28152533707861 56.76819142706823, 43.222253789031576 52.84994048880808, 50.81293517219815 43.94771967541022 M42.12386800641714 59.32787431913693 C45.12169513076889 57.526252292317636, 47.31335626210699 55.58264517186819, 49.95019842127786 50.762154289305926 M42.5935398609802 60.45796593248178 C45.25982718949167 57.51674012311751, 48.81057543346043 53.603080203628714, 51.247709251032035 51.30741735302728" stroke="#ced4da" stroke-width="0.5" fill="none"></path><path d="M-1.4502993691712618 0.5991507340222597 C17.398105455446057 -1.1547887280466966, 32.925844920566306 1.3211590692517348, 50.56592137925327 0.3408979345113039 M-0.8660114919766784 0.7592707937583327 C14.128215196658857 -0.29848950655432416, 26.07630789023824 0.4041441425564699, 48.91972474101931 0.7829737430438399 M50.651023937389255 0.3264817167073488 C47.90638262230205 23.841955787385814, 48.155893923819534 47.064600344514474, 49.674521220847964 58.31385155208409 M48.56776718143374 -0.5603850120678544 C48.05334497456206 14.228454914060423, 47.78779409293784 27.56426806864329, 48.81869144085795 58.55454165395349 M47.04619909636676 58.57658072002232 C39.73081850085873 57.910630036878864, 28.49357625679113 60.75859855561284, 1.8261794578284025 58.258608834818006 M49.74617571476847 59.147927588783205 C34.348540997947566 59.38106018343242, 18.917284493101757 58.93213781752856, -0.23604573961347342 58.586103118024766 M-1.3119540680199862 57.415182607248425 C-0.9096679900889285 37.476446514134295, 0.3784060860867612 17.34021782153286, 0.44051278941333294 -0.007142229005694389 M-0.056707522831857204 59.421165383420885 C-0.06081124049378561 42.43867016758304, -0.362031448900234 28.852940660668537, 0.4993181312456727 0.5855133598670363" stroke="#495057" stroke-width="1" fill="none"></path></g><g transform="translate(61.875000000000114 363.125) rotate(0 17.5 9)"><text x="17.5" y="14" font-family="Helvetica, Segoe UI Emoji" font-size="16px" fill="#495057" text-anchor="middle" style="white-space: pre;" direction="ltr">log 1</text></g><g transform="translate(338.1250000000001 32.125) rotate(0 24.375 29.375)"><path d="M0 0 C0 0, 0 0, 0 0 M0 0 C0 0, 0 0, 0 0 M-0.8244864642293999 5.994023469884985 C0.5453102852690275 4.687732187051026, 1.4919099507772235 4.433885922997895, 4.712707352968401 0.8359895769355111 M-0.26639652062671876 6.3536911149072575 C1.7460154160768568 4.310684436950739, 3.197325706505513 2.910375666425334, 5.14080921034748 0.1407471224514061 M1.4518048905860295 10.654052071690142 C4.949163509122677 8.99345836079399, 6.078657527605192 5.470586530136264, 9.901206257891786 0.025885591943538344 M0.18054793487299547 12.20954284784156 C3.0407997821634662 9.143245001003217, 4.848725352725146 6.074325624427751, 10.013055557710064 0.7034371200099352 M-1.228957266598032 17.16410092720824 C5.200438580244761 12.042007878624105, 7.607777466796961 9.441651926982003, 15.577958369165142 -1.3335966927069256 M-0.6064503007149558 18.197851069179052 C5.48277804623551 11.856635334522368, 10.23189058361348 7.234021032714676, 15.711503191388626 1.0085168571141532 M2.0056658929399465 25.45867529110527 C6.877963140029555 17.12371186701131, 15.178173063944365 8.53951513436601, 19.33609534082737 -1.5445811269641396 M-0.3603403426521208 23.971677026427447 C6.310734733830224 17.2648904872106, 11.257888545451666 11.150908772609641, 21.660529312955106 -0.7923125490382787 M0.7409091769297973 29.567375052485815 C7.875349146824693 19.91057487879472, 19.762569699450264 10.337372517807264, 24.313419331472726 -0.9988742457690893 M-0.048534385808800096 30.337158097651056 C7.4428579931912795 22.26672243541374, 12.76276276073136 15.237179792281143, 25.99126095478645 0.09412473105012786 M-1.8131522723567208 37.64729483034586 C13.681362050865886 20.497700511825265, 23.936000585235252 9.54274949529778, 31.75301763736347 -1.3897941353485699 M-0.2534072390851101 36.099795884267735 C10.28330259662207 24.955972146779054, 20.881330271530075 12.353228872459912, 31.885780774473048 -0.7804027189255471 M0.352384812352156 44.08795111868136 C14.224389744125322 28.890717985281157, 27.30925232354073 14.356660332266035, 36.385069563799846 0.5281013139617166 M0.9651272261188382 41.777006050195325 C11.406896302290141 28.95364780588549, 23.81851601578617 16.19864850717951, 37.268146251143264 -0.47712393187913094 M-1.110425263643343 47.962911027156636 C11.503304623360913 37.713619675754124, 17.672705783900078 25.636541762680547, 42.4878186570441 1.0888377659349686 M-0.8048110110686011 48.26849706252001 C13.274265745239198 35.424367163585295, 25.02027581185366 21.947336939403975, 42.146611917387474 0.6983078008844501 M-1.501463954080954 53.934325219544874 C15.335474680932364 36.89529797870496, 30.88476687673299 18.51904504035931, 47.45160047239649 -0.059798919764514125 M0.3590950819429608 54.97955312993686 C11.545921382046721 41.79083133610905, 23.190015163553294 27.50734494080373, 48.45890712733406 -0.36025842854862944 M1.8035973543205763 60.96868539506484 C14.9907742854726 42.77290835484888, 25.828714727122996 30.617858558159664, 51.87163771914774 2.4576894113047913 M1.8707554172629024 58.75554168408651 C18.85913440180867 40.0913493291115, 35.464220580219475 19.818212232492108, 51.44628120160186 2.0732309541850285 M4.758210544795034 59.241357226821414 C20.227741460912075 40.121525499737785, 36.63565267138936 23.06453595686088, 49.736304144617094 6.9508515292527235 M5.321835989453135 60.00519631799572 C16.92632037763342 47.677577217633676, 28.51795103896376 34.45010865177993, 50.12301731133826 7.982122326617137 M11.61656533567113 57.64472406514721 C19.983215156590703 48.493819016250704, 30.454584030961037 37.83032116801021, 52.42445094001932 12.284852696738618 M11.734623440670493 58.42751048941897 C23.453803286736388 45.788412050944075, 34.54004830616017 34.6921632108158, 50.55500888408614 14.447370746328907 M18.274856657249106 60.16446239470651 C27.190929277835092 44.15198766248153, 40.16373724418936 33.25569290855617, 52.39672616065468 21.16216627342678 M16.184542437543346 60.60676297794243 C29.77781868105574 45.209306985392374, 40.174783271803804 32.58154460880555, 51.8323290239739 21.14798155540652 M21.739843680791214 61.31233225427255 C30.786485083046365 49.25662070092513, 41.45215398153257 39.12798345557326, 50.53684210278543 24.49884917309042 M23.549964700162068 59.6640583047612 C32.272438316295094 46.623739276639846, 42.910763676887655 36.36722707937589, 50.691747888591905 25.95603583754506 M25.692877586597707 58.351353878509585 C35.5898012188369 48.72312569487174, 45.417884636993776 39.993067863296915, 51.71560307171181 31.649718505393814 M27.357486770155038 60.701253374461416 C37.09674151253927 50.5303284454261, 45.83931390786162 39.963109506490596, 51.362010457068536 33.380617059830676 M34.55087379593083 57.44563105619085 C36.049014529518494 52.126060551842905, 43.73289224597762 47.439755212969935, 52.19581858470556 39.31288451433296 M34.12415224261263 59.169530833238184 C37.992134035125964 54.40368616226783, 41.69992959365363 49.47747030001878, 50.24999973300365 38.69109401118124 M39.030339739090834 57.88552777198062 C40.370678944277635 56.80072996142886, 47.482198072495635 51.574046133489176, 50.47662628403846 45.98137931890381 M38.20272953416321 60.31332571067766 C42.757589820742304 54.47896263237647, 46.25305913263678 49.709486241192444, 51.06630965749714 44.587499543014594 M42.20580734829007 59.421845867366386 C45.85685056468321 57.81629672513362, 48.44192026234541 54.26018067475172, 51.70620676244126 51.84079058763456 M43.35515956482439 60.20269019536008 C44.96640874382599 57.897053345006704, 46.8074906200944 55.56477079781348, 50.99400866574125 50.926464781322295" stroke="#ced4da" stroke-width="0.5" fill="none"></path><path d="M1.2477765250951052 -0.5793571341782808 C13.0964791738661 -0.6510673010838218, 22.07386109814979 1.4887657320010477, 48.214794950559735 1.1170584689825773 M-0.7968130940571427 -0.9648632323369384 C17.439717742498033 0.25681197588564825, 37.48805335047655 -0.8276332920300775, 48.274914032779634 -0.8747236942872405 M46.77693207748234 -1.9616878498345613 C48.20321410157485 17.436244237353094, 47.033860080025626 38.42201926582493, 48.54371132142842 56.98919667117298 M47.87704325374216 -0.4950986122712493 C47.7927469032933 17.689144426840357, 49.53488937198417 37.04438603925519, 48.6013039117679 59.04112494830042 M47.95184149034321 58.84058035723865 C30.179074644926 60.593379964877386, 12.763136489083983 58.94426112418296, 1.3482765723019838 57.40842158906162 M47.94559774454683 59.448727020062506 C32.74745430343319 57.879679288144686, 16.832001864211627 57.547345455165484, 0.5046123927459121 58.894810237921774 M-1.5152759980410337 58.862298561260104 C0.5698438196559437 40.16356641135644, -2.1146965117077343 20.29913716367446, -1.9698369335383177 -1.9986188281327486 M-0.861810022033751 58.31842640880495 C-0.4841466411133297 39.29723823082168, -0.930425421812106 19.379482708172873, 0.41632751282304525 0.5453714812174439" stroke="#495057" stroke-width="1" fill="none"></path></g><g transform="translate(345.0000000000001 10) rotate(0 17.5 9)"><text x="17.5" y="14" font-family="Helvetica, Segoe UI Emoji" font-size="16px" fill="#495057" text-anchor="middle" style="white-space: pre;" direction="ltr">log 2</text></g><g transform="translate(609.375 389.625) rotate(0 24.375 29.375)"><path d="M0 0 C0 0, 0 0, 0 0 M0 0 C0 0, 0 0, 0 0 M-0.5868302762182305 5.895874957044713 C0.6359892021477023 5.3996451208761576, 2.1211083168803 3.892654206280298, 5.096770859094804 0.7654938045737557 M0.1300625939248254 6.231609632496826 C1.7779995617041546 4.61175097668777, 3.577940174538579 1.9452655182273277, 5.048250456857032 0.23715738503609235 M1.6022683286200867 12.874669413685382 C3.209010176825902 8.779284207103393, 7.077835082570509 3.250300043695802, 10.053419879031313 0.32959161802080894 M0.29752393375147457 12.357984710901558 C2.7501447352990747 8.517064001237014, 6.354164190999824 4.882145846650271, 10.543231172067058 -0.789482253502333 M0.4768279483029385 17.122209411953264 C1.5843179663031508 16.232168370994543, 6.238507301445919 9.625222594522993, 15.927960121541698 1.600992276046889 M0.6299310214305063 17.560652352776998 C5.106740655489299 13.388828473294343, 9.271579216467671 8.554343707920463, 16.091123534835358 -0.3378846257063577 M-0.5755915099569346 25.58258005575752 C7.208119749030632 17.206390088348634, 12.105875565394076 6.386678298691187, 20.984442658999825 1.8288143756031516 M0.5311742268688295 24.271462372220217 C6.862324711808825 16.762568227805094, 15.30075199022134 6.72096797886574, 21.74096771823045 0.04994849713290961 M-1.2231550039211854 30.225301194701544 C7.359159909136164 24.445828323408307, 9.841170814047466 15.641413683216417, 25.04520743028483 -0.8555564867320715 M0.9742181674157635 29.625654800560525 C9.05458986907921 19.476445950581667, 17.844839878473405 9.521397912507528, 27.198817470718534 0.05470528863489044 M0.8906969836819449 35.15473307278131 C8.810263323282866 27.09329375555184, 20.054648420627903 12.274958645446986, 32.43732610665897 -1.1356727721855755 M-0.4309291533288082 36.93947342671578 C8.064018930997339 27.00461705736597, 16.580670674658375 17.07468299503311, 32.370388262389994 -0.29235348000533534 M1.3588520951242202 43.27015780899279 C9.34606126296243 34.260197670321354, 15.067194116215624 24.711429816637917, 37.412462368422496 1.8061732539069375 M-0.2705487942649967 42.45982610210382 C7.7696595770254735 34.60451321472229, 16.14538963258209 23.692780863815702, 36.1846203848732 0.6457853457984051 M1.8548490107058697 48.717408138000295 C8.069070755819041 37.07092411518012, 19.370271042737272 28.164688268601484, 42.20784413683765 -1.5612271196813339 M0.7983620362355524 49.03466348131083 C10.14493841895021 38.97939439060398, 18.62328909477707 28.420323637170615, 42.93590118325852 0.48046066224118533 M-0.4622093483108429 55.79340034857701 C16.989414413813915 35.93084789442304, 35.805886619061475 14.039144994798356, 46.61029134220469 1.10717759171391 M-0.2657468167367725 55.23626196053188 C9.259673386674832 43.13743454589092, 21.137376447901232 30.816971133200468, 47.129342824174344 0.24126374890918 M1.9284900063553359 57.6618917649417 C13.012317605604354 44.68630894412442, 28.78762458660502 28.475136624571594, 52.04901106881434 0.446651167534192 M1.2684173714274074 59.2957311589076 C10.51068413040356 47.47637597688738, 21.412927860406576 36.60647886720985, 51.85482744073951 3.008740367665787 M4.314383332938192 59.25801368519925 C21.008193592445046 42.45661993441577, 38.06622243115166 20.960229867862566, 49.78386143898584 6.589008002889351 M5.591153407790003 60.22629685696476 C20.92620864387259 43.18796831688715, 34.18636756281012 26.810598105656425, 50.2565210166014 8.33947908354272 M10.721144724766436 58.79641508468227 C21.14252222307166 48.62619904178945, 31.273337642020998 37.05219851799693, 50.90267801893396 14.784178985438722 M12.60463074700785 58.550194699957835 C25.716653303143005 45.62547112493237, 37.13808096169955 30.383696493597423, 51.81144979180289 14.10642714162119 M15.253953487140311 58.14753807305505 C29.02646825256386 45.96331840768407, 43.99669620354298 30.457327881041646, 52.01259323895897 18.68190309984661 M17.545406868209316 58.893695654972994 C26.901697925038835 47.519960292960384, 39.0792923473253 35.87554110327717, 51.30206968297239 20.999332071487377 M21.566053166322067 60.270408314090815 C33.93253984843922 48.067237891385076, 43.684428566815 32.26368308545925, 52.58130377032312 24.708002884886227 M21.734236303984776 58.638646430705336 C32.13601575347042 48.20264153657368, 42.26330021109061 35.20024812779543, 52.43878366020026 27.119767144336365 M26.42277931761196 59.43781166745383 C32.901388965428524 55.01813937722174, 39.99197268476026 45.59346925560689, 52.50109829332665 32.28956107522185 M28.42134840846261 60.366396119241 C34.67143799018085 52.5056885649486, 39.975736037945346 46.318265327870336, 50.70521951511488 33.425058014754306 M31.762531737272234 57.38611754691732 C41.45216998990038 50.403851363933086, 47.55112015977947 44.66740155258539, 49.4937707002413 40.75945353984947 M34.12866958923319 59.226369554275095 C40.60295761344241 50.93513779682005, 46.34703506027286 42.99841090131946, 51.0443930638161 38.85156565915907 M36.26080223060313 61.54045556214557 C43.47611811873489 56.24164416325031, 45.81009603365084 51.396885232711995, 51.954943008338844 45.80797802276505 M38.495101075424884 59.37999395289377 C40.511283453266 56.23194590145698, 43.69260605062863 52.989678602165164, 51.984281059903836 43.9850651164685 M42.915487202206236 61.17807425472219 C45.486204705696295 57.76585659462684, 49.49997872711594 54.506153698134696, 50.30255081618653 50.36460892555189 M43.05204378566293 60.10091429285039 C45.94025511104837 56.51679512094877, 48.97242330413362 53.204780725642735, 50.88155431693868 51.44259373263341" stroke="#ced4da" stroke-width="0.5" fill="none"></path><path d="M1.8517760802060366 -0.9168323744088411 C11.55180417757947 1.3642189601319843, 23.39949348405935 1.2582767704385334, 50.27935625799 -0.4440705645829439 M-0.9130881363525987 0.32257012370973825 C16.065023071016185 -0.29150431844173, 30.090076989261433 -0.4043528685229831, 48.96255306061357 0.1487888777628541 M48.11580063588917 -1.437504993751645 C46.366857912100386 19.40354193665553, 47.964122619188856 35.69723893725313, 49.012514190748334 58.57250161282718 M47.844887054525316 -0.7069910084828734 C49.07416743478971 17.804713962483223, 48.08844182334142 35.39632253604942, 49.64237940963358 58.79648242238909 M49.15442426688969 60.71378703229129 C37.29290640715044 59.086747153673784, 23.25641792058013 57.430500551138536, 0.668525593355298 57.1489168535918 M49.001985437236726 58.339040854014456 C39.309679790516384 58.347336443315726, 29.191843710141253 59.235439660202246, 0.13499472197145224 59.08022428397089 M0.763850586488843 58.581660402938724 C-1.4755774204502814 38.003907238016836, -1.524724609113764 18.48854535422287, 0.670547204092145 -0.015911268070340157 M-0.4888205761089921 58.89197064284235 C-0.4287859688629396 41.09910928842146, 0.922640900767874 24.355694993631914, -0.3732301527634263 -0.1927040433511138" stroke="#495057" stroke-width="1" fill="none"></path></g><g transform="translate(616.25 368.75) rotate(0 17.5 9)"><text x="17.5" y="14" font-family="Helvetica, Segoe UI Emoji" font-size="16px" fill="#495057" text-anchor="middle" style="white-space: pre;" direction="ltr">log 3</text></g><g transform="translate(10 110.875) rotate(0 61.25 41.875)"><path d="M18.87029621467441 11.103646264684963 C18.87029621467441 11.103646264684963, 18.87029621467441 11.103646264684963, 18.87029621467441 11.103646264684963 M18.87029621467441 11.103646264684963 C18.87029621467441 11.103646264684963, 18.87029621467441 11.103646264684963, 18.87029621467441 11.103646264684963 M6.425207756982324 34.40090089829534 C9.799322139461992 27.83519121818541, 14.820433760808266 22.599678812361567, 25.98460880767465 8.705785494523727 M5.689862358906446 32.54319037755847 C12.165267875927675 24.768417327242318, 18.223944258196404 17.734156340334803, 25.61772737286896 8.972045989001774 M4.24883698057026 37.98729099876432 C9.946235213009036 33.05802104366709, 17.269684063487162 26.830475180063395, 32.6436751156611 8.494598804461166 M5.245501201968793 39.96592212732135 C12.018567391175468 31.923667184797573, 20.230169855951647 21.37703823432551, 34.171029977270734 7.441123563284382 M6.095314097284447 47.08423221542167 C20.29188139870805 27.546351225140366, 34.3446793832688 12.64488659706656, 40.51034273474254 3.026202000118218 M4.54866120933659 44.602678084398086 C18.692194253087514 30.135063742193516, 32.99636587918977 13.04228562282946, 41.25887156824358 3.2615239288652162 M2.1508356613910955 54.48608543766249 C12.49329435770661 42.67704842230958, 21.566441718895387 31.972533777514478, 47.39328218115672 1.3952803552216686 M1.9144146676979226 54.208298874511904 C17.28196562883088 36.79570405632693, 32.93383514472291 19.617681023462353, 47.290478081947114 2.9386074082991875 M4.737023594995044 56.64347681609476 C23.526115466938307 36.354010559675416, 39.13614768510525 18.172160472732905, 52.45896778816035 2.0047664289438707 M6.147751419079505 55.886273197098916 C22.80529413474307 36.948554387659684, 38.70735474228895 18.085355002632653, 51.35612145905992 4.5096144220867735 M7.568182086400473 61.15476181100469 C27.030976125184473 36.57398209735341, 46.81312669323938 15.067946063422752, 55.60400411189625 2.812405942783883 M8.019585759207391 60.86145187377345 C20.185858091397442 47.523684338051375, 32.31599354272478 33.460204582030116, 57.8181960506467 4.071481365555158 M12.93268651780716 63.427818625227985 C26.49316954466347 46.48102625517794, 39.93931395571279 30.611537361074177, 65.83356340956419 -2.2719697754225834 M10.666895365203235 63.42309128119933 C27.576809814130876 45.83518283144542, 42.325536944552084 27.827612672980948, 66.90840609632909 -0.5406369471318229 M14.695657059443331 64.05848232726866 C35.94311606927889 40.636635757271364, 57.43248617847769 17.063523527363422, 70.2004134074968 -0.5362671497210059 M14.814144889717138 65.58453747420872 C26.12199878895187 51.03939469402026, 39.93382208051877 37.72210618145792, 70.88554349236159 1.3780593588084784 M18.454635756537243 67.37891611063074 C38.77555453231666 45.1486779697953, 61.3527359975709 18.984097985562563, 75.64236525784642 1.4409534966104545 M16.14771304789923 67.91284744513374 C32.24726126489881 50.61542493663276, 47.29853286281707 31.39339273038121, 74.09168574831844 0.5903490714260258 M19.69526361628865 70.00598255314992 C37.50081204197018 50.82112883492961, 51.628606749135166 33.141444485113354, 78.11223878483176 2.2254270268530405 M19.69031970437114 71.35841038313822 C41.53586211142778 45.72063980106305, 63.35237302368793 19.29850818801863, 79.3009112333402 2.633188977830187 M22.042426433925797 74.18200109833023 C43.405286074491684 50.0768502183811, 66.13295329115506 23.558149511624897, 83.3577756876716 3.0567164292880094 M23.270921699282994 74.87695515555433 C38.20456209528788 54.24845064551975, 54.784662709902804 36.67584515426662, 82.71796237906754 4.628496802630345 M24.728049937657946 74.81370015423018 C49.633685649916984 49.85692244268908, 70.83865134121785 23.491124063697505, 89.10913954058469 4.660712817196618 M27.21125799326592 75.74975240676868 C45.80332673026993 53.38140653852004, 66.24956025809946 31.295584803662642, 87.38449567964108 4.37690120793588 M30.81042270170385 78.54884583413096 C50.735362353835 52.10451381601821, 76.0263341818388 25.440613504598247, 93.26641579278979 6.062135428860103 M29.76392258046055 76.9414932988906 C46.47139139378998 59.504365203269245, 63.29421010427721 41.32846078100121, 91.58533169170144 6.451491793356155 M34.70563711730124 79.34345153675942 C49.7948585033554 60.53871858251842, 70.28751802769017 39.32614478296465, 96.0871117685056 5.397031627559727 M34.86255545952649 77.94874909197507 C55.17590555432952 55.10115803511222, 75.36178722489969 32.38618863538106, 96.25470503438922 7.291569096000558 M40.311443566649864 78.74602046495121 C54.22876012622811 60.45137710250734, 71.47444719797429 39.15255993344361, 99.0615386089699 8.234696062022273 M39.46444680758537 79.36546366268587 C53.327427107991944 61.53278951690262, 69.76209892305172 44.26658094263502, 100.07039633136407 8.805813750923996 M43.946278190987485 82.74772226743318 C58.22289723641862 64.99227932321818, 73.49560551245189 48.79260834226044, 103.03666544638243 11.861913185083452 M42.708314748296814 81.01438014607794 C67.15096135497441 53.92469957113826, 90.2788471615282 25.99069841494766, 102.79633638474759 12.937779009790304 M45.78523512251385 84.557216397041 C60.74403430494036 69.90036376219894, 70.85774890353619 54.499215112988395, 104.46726522996197 16.623714735024514 M46.56902758378246 83.00311429381512 C65.43666545190163 61.21165667552475, 83.93443065076357 40.96615582058802, 105.75250200118045 14.28789822220886 M49.455153281457214 84.69611917227871 C70.50980176602394 64.92616005602706, 86.99405705417362 41.36694371457497, 106.91553278392725 17.226460575126715 M51.671440591692416 83.10087153572954 C70.32892034435702 60.20389725946036, 92.35546369636745 37.503662746053415, 108.53328404980324 17.697815675289043 M56.15847055001734 83.28324629598201 C72.55164251374214 64.02637936728371, 89.43776046318737 47.93660460067283, 113.23858480749702 21.550338693671293 M56.63300019914834 83.30393949848504 C73.68015994058227 63.81175298809037, 92.13934585231732 42.90609880548179, 111.4137374622566 20.344136593640215 M59.612251540441434 84.88478949710047 C78.10176296238282 66.02349649718698, 89.95363347847535 48.15289315811916, 115.77595987489002 23.46186520393951 M61.221521750819306 83.96711464735931 C81.13471196725799 61.562223926861606, 99.42837149238687 40.05304520984685, 114.75583123268115 22.832177139371765 M66.79627788492928 83.77972072846977 C78.64336672580598 69.7760439670934, 90.83462441451599 53.16818384250542, 116.53711843532503 25.626384344212596 M66.32202979882697 83.35035648401616 C78.25840564025022 70.46614937613003, 88.55183963592577 59.84349400984412, 117.41469841771752 25.289714412093048 M72.89207600370914 84.80996880859396 C92.96080640303192 63.712544425124534, 108.5693952423743 39.655186827930926, 121.38894281302078 28.32056847777183 M73.09453587082147 83.75021418828777 C84.61720520233021 70.99420886216201, 96.12343249932697 56.880023018128554, 120.14488613650633 28.460736448913465 M77.4385941920092 81.92879068097706 C95.33162210318892 64.96363343047082, 108.66508936283094 48.22823607952899, 121.61900109123397 35.26375641378952 M78.34846555695289 84.32944787750627 C91.67405540679911 66.78829086998351, 104.96240445305622 52.02389660547635, 121.38236945472616 32.81803054533346 M83.14393873601979 81.994433093232 C99.4296320618058 64.08704651143272, 112.15669106398656 50.25316034357207, 120.65181448913594 36.61922886443308 M83.5731446258334 82.19194028561273 C96.45256839442439 68.91223465679316, 108.33655098682262 54.22020952049938, 121.17956876147022 37.845708712348554 M94.79257876794065 77.35618049819449 C101.5313371996986 69.80591352408368, 107.36323488517806 61.667098902688636, 124.39547192695488 43.12735214820653 M93.06375387958462 77.24999466427097 C102.07604844821687 69.20314119388311, 110.70936930760892 59.95571245364579, 123.77071433438857 43.4536013797909 M100.80861015001902 71.68569337481408 C108.48213630495549 65.8990490707501, 113.3928159240367 59.888295295085165, 123.36548419991908 50.38982070861387 M101.70334303787568 73.33692310375868 C110.43780975470058 64.29034230360307, 118.78616411045157 56.499538999642525, 122.91445051363138 48.542749914992626" stroke="#ced4da" stroke-width="0.5" fill="none"></path><path d="M65.6168756168041 -0.853261202595796 C75.49633089182961 -0.8854855458978091, 87.84816171934872 2.8089814487765885, 96.56405455180806 7.256080508905711 C105.27994738426739 11.703179569034834, 113.78958754495844 19.093632317303378, 117.91223261156006 25.82933315817894 C122.03487767816168 32.565033999054506, 122.79217123674702 40.51307864793872, 121.2999249514178 47.67028555415909 C119.80767866608856 54.82749246037947, 115.36456521459283 63.068769585178345, 108.95875489958465 68.77257459550118 C102.55294458457647 74.47637960582402, 92.78576629623373 79.52371000878475, 82.86506306136866 81.89311561609613 C72.94435982650359 84.2625212234075, 59.899824385959604 84.63415281259341, 49.43453549039417 82.98900823936947 C38.96924659482873 81.34386366614552, 27.940908049220546 76.88392344651503, 20.073329687976056 72.02224817675241 C12.205751326731566 67.1605729069898, 5.286398564858915 60.665564578192054, 2.2290653229272337 53.818956620793784 C-0.8282679190044475 46.972348663395515, -1.0845600790360357 38.108238299438206, 1.7293302363859695 30.94260043236281 C4.543220551807975 23.776962565287413, 11.339181929331815 15.713222828936171, 19.112407215459264 10.825129418341408 C26.885632501586713 5.937036007746646, 40.256535815645776 3.5119051648123456, 48.36868195315067 1.6140399687942377 C56.480828090655564 -0.28382522722387016, 64.00051012312338 -0.47554518785903116, 67.78528404048865 -0.5620617577672391 C71.57005795785392 -0.648578327675447, 71.25888171133107 0.24466050620391755, 71.07732545734227 1.0949405493449902 M83.25584730605735 4.231321608040041 C92.89385371980397 6.089963689663132, 103.91092021238691 11.20302300151392, 110.45246338222299 17.007751287952022 C116.99400655205906 22.812479574390125, 121.28060851180047 32.0756632670964, 122.50510632507383 39.05969132666866 C123.72960413834718 46.04371938624092, 122.56720654133166 52.83492996849071, 117.79945026186314 58.9119196453856 C113.03169398239463 64.98890932228049, 102.7549073981612 71.20767884856231, 93.89856864826274 75.52162938803801 C85.04222989836428 79.8355799275137, 74.8893214062438 84.1861037667629, 64.66141776247238 84.79562288223983 C54.43351411870097 85.40514199771675, 41.72312026169354 82.82719992257117, 32.53114678563426 79.17874408089956 C23.339173309574985 75.53028823922796, 14.836605802604527 69.31075985520292, 9.509576906116713 62.90488783221015 C4.1825480096289 56.49901580921739, 0.44218205828171975 48.00026580045016, 0.5689734067073857 40.743511942942995 C0.6957647551330517 33.48675808543583, 4.672899751736494 25.538695708712357, 10.270324996670709 19.364364687167186 C15.867750241604924 13.190033665622014, 25.01559271036028 6.789677302130251, 34.15352487631268 3.697525813671959 C43.29145704226508 0.6053743252136674, 56.88261985128838 0.9335886106605086, 65.09791799238512 0.8114557564174376 C73.31321613348186 0.6893229021743666, 80.27173267879444 2.332158107221366, 83.44531372289312 2.9647286882135333 C86.6188947669918 3.5972992692057004, 84.62618058586455 3.7887344787810306, 84.1394042569772 4.606879242370439" stroke="#5c940d" stroke-width="1" fill="none"></path></g><g transform="translate(42.75 142.5) rotate(0 28.5 9)"><text x="28.5" y="14" font-family="Helvetica, Segoe UI Emoji" font-size="16px" fill="#5c940d" text-anchor="middle" style="white-space: pre;" direction="ltr">CLIENT</text></g><g><g transform="translate(143.74741784856127 155.26037129047035) rotate(0 73.26179303029056 1.8308748094279963)"><path d="M-0.16659964509308334 0.4685317117720842 C24.318442074487187 1.1011581912732602, 121.48191860084523 3.6116845012190355, 146.10534876341868 3.9928427037426726 M-1.7132031881064178 -0.3310930848866702 C23.19749378679154 -0.053637165268611786, 123.4514552040874 1.5830596034708035, 148.2367892486875 2.2765071154960888" stroke="#5c940d" stroke-width="4" fill="none"></path></g><g transform="translate(143.74741784856127 155.26037129047035) rotate(0 73.26179303029056 1.8308748094279963)"><path d="M120.61624124196629 10.09582745925864 C127.72453466808359 10.332407148172626, 132.2776654213073 8.264619816137312, 146.65465805473673 3.2216439177670972 M119.51339491286586 12.600675452401543 C127.34996587096437 10.47932514839533, 133.58101016699882 7.197976881437361, 148.7860279090603 2.575881970619549" stroke="#5c940d" stroke-width="4" fill="none"></path></g><g transform="translate(143.74741784856127 155.26037129047035) rotate(0 73.26179303029056 1.8308748094279963)"><path d="M121.05015795119908 -10.420793087880401 C128.09107716808876 -5.4059846347820475, 132.54313792800892 -2.69494078288501, 146.65465805473673 3.2216439177670972 M119.94731162209865 -7.9159450947374985 C127.60728105025163 -5.218465103021963, 133.73638567511526 -3.6798617349996503, 148.7860279090603 2.575881970619549" stroke="#5c940d" stroke-width="4" fill="none"></path></g></g><g transform="translate(174.7500000000001 163.25) rotate(0 19 9)"><text x="19" y="14" font-family="Helvetica, Segoe UI Emoji" font-size="16px" fill="#5c940d" text-anchor="middle" style="white-space: pre;" direction="ltr">"toto"</text></g></svg>